<mxfile host="app.diagrams.net" modified="2023-12-01T17:26:23.252Z" agent="Mozilla/5.0 (Windows NT 10.0; Win64; x64) AppleWebKit/537.36 (KHTML, like Gecko) Chrome/119.0.0.0 Safari/537.36" etag="ZcfNf9NZ6wCKXRmNN1ks" version="21.7.2" type="github">
  <diagram id="6a731a19-8d31-9384-78a2-239565b7b9f0" name="Page-1">
    <mxGraphModel dx="1366" dy="789" grid="1" gridSize="10" guides="1" tooltips="1" connect="1" arrows="1" fold="1" page="1" pageScale="1" pageWidth="1169" pageHeight="827" background="#663300" math="0" shadow="0">
      <root>
        <mxCell id="0" />
        <mxCell id="1" parent="0" />
        <mxCell id="ugSWX1yStPLp8a-PfSf9-1780" value="2" style="rounded=0;whiteSpace=wrap;html=1;fillColor=#008a00;strokeColor=#005700;fontColor=#ffffff;" vertex="1" parent="1">
          <mxGeometry x="180" y="260" width="60" height="60" as="geometry" />
        </mxCell>
        <mxCell id="ugSWX1yStPLp8a-PfSf9-1781" value="1" style="rounded=0;whiteSpace=wrap;html=1;fillColor=#008a00;strokeColor=#005700;fontColor=#ffffff;" vertex="1" parent="1">
          <mxGeometry x="80" y="260" width="60" height="60" as="geometry" />
        </mxCell>
        <mxCell id="ugSWX1yStPLp8a-PfSf9-1782" value="3" style="rounded=0;whiteSpace=wrap;html=1;fillColor=#008a00;strokeColor=#005700;fontColor=#ffffff;" vertex="1" parent="1">
          <mxGeometry x="280" y="260" width="60" height="60" as="geometry" />
        </mxCell>
        <mxCell id="ugSWX1yStPLp8a-PfSf9-1783" value="4" style="rounded=0;whiteSpace=wrap;html=1;fillColor=#008a00;strokeColor=#005700;fontColor=#ffffff;" vertex="1" parent="1">
          <mxGeometry x="380" y="260" width="60" height="60" as="geometry" />
        </mxCell>
        <mxCell id="ugSWX1yStPLp8a-PfSf9-1784" value="6" style="rounded=0;whiteSpace=wrap;html=1;fillColor=#008a00;strokeColor=#005700;fontColor=#ffffff;" vertex="1" parent="1">
          <mxGeometry x="580" y="260" width="60" height="60" as="geometry" />
        </mxCell>
        <mxCell id="ugSWX1yStPLp8a-PfSf9-1785" value="5" style="rounded=0;whiteSpace=wrap;html=1;fillColor=#008a00;strokeColor=#005700;fontColor=#ffffff;" vertex="1" parent="1">
          <mxGeometry x="480" y="260" width="60" height="60" as="geometry" />
        </mxCell>
        <mxCell id="ugSWX1yStPLp8a-PfSf9-1786" value="7" style="rounded=0;whiteSpace=wrap;html=1;fillColor=#008a00;strokeColor=#005700;fontColor=#ffffff;" vertex="1" parent="1">
          <mxGeometry x="680" y="260" width="60" height="60" as="geometry" />
        </mxCell>
        <mxCell id="ugSWX1yStPLp8a-PfSf9-1787" value="8" style="rounded=0;whiteSpace=wrap;html=1;fillColor=#008a00;strokeColor=#005700;fontColor=#ffffff;" vertex="1" parent="1">
          <mxGeometry x="780" y="260" width="60" height="60" as="geometry" />
        </mxCell>
        <mxCell id="ugSWX1yStPLp8a-PfSf9-1788" value="10" style="rounded=0;whiteSpace=wrap;html=1;fillColor=#008a00;strokeColor=#005700;fontColor=#ffffff;" vertex="1" parent="1">
          <mxGeometry x="980" y="260" width="60" height="60" as="geometry" />
        </mxCell>
        <mxCell id="ugSWX1yStPLp8a-PfSf9-1789" value="9" style="rounded=0;whiteSpace=wrap;html=1;fillColor=#008a00;strokeColor=#005700;fontColor=#ffffff;" vertex="1" parent="1">
          <mxGeometry x="880" y="260" width="60" height="60" as="geometry" />
        </mxCell>
        <mxCell id="ugSWX1yStPLp8a-PfSf9-1794" value="" style="endArrow=classic;html=1;rounded=0;strokeColor=#CCFFFF;exitX=1;exitY=0.5;exitDx=0;exitDy=0;" edge="1" parent="1" source="ugSWX1yStPLp8a-PfSf9-1781">
          <mxGeometry width="50" height="50" relative="1" as="geometry">
            <mxPoint x="150" y="290" as="sourcePoint" />
            <mxPoint x="180" y="289.84" as="targetPoint" />
          </mxGeometry>
        </mxCell>
        <mxCell id="ugSWX1yStPLp8a-PfSf9-1795" value="" style="endArrow=classic;html=1;rounded=0;strokeColor=#CCFFFF;exitX=1;exitY=0.5;exitDx=0;exitDy=0;" edge="1" parent="1">
          <mxGeometry width="50" height="50" relative="1" as="geometry">
            <mxPoint x="240" y="290.05" as="sourcePoint" />
            <mxPoint x="280" y="289.89" as="targetPoint" />
          </mxGeometry>
        </mxCell>
        <mxCell id="ugSWX1yStPLp8a-PfSf9-1796" value="" style="endArrow=classic;html=1;rounded=0;strokeColor=#CCFFFF;exitX=1;exitY=0.5;exitDx=0;exitDy=0;" edge="1" parent="1">
          <mxGeometry width="50" height="50" relative="1" as="geometry">
            <mxPoint x="340" y="289.97" as="sourcePoint" />
            <mxPoint x="380" y="289.80999999999995" as="targetPoint" />
          </mxGeometry>
        </mxCell>
        <mxCell id="ugSWX1yStPLp8a-PfSf9-1797" value="" style="endArrow=classic;html=1;rounded=0;strokeColor=#CCFFFF;exitX=1;exitY=0.5;exitDx=0;exitDy=0;" edge="1" parent="1">
          <mxGeometry width="50" height="50" relative="1" as="geometry">
            <mxPoint x="440" y="289.97" as="sourcePoint" />
            <mxPoint x="480" y="289.80999999999995" as="targetPoint" />
          </mxGeometry>
        </mxCell>
        <mxCell id="ugSWX1yStPLp8a-PfSf9-1798" value="" style="endArrow=classic;html=1;rounded=0;strokeColor=#CCFFFF;exitX=1;exitY=0.5;exitDx=0;exitDy=0;" edge="1" parent="1">
          <mxGeometry width="50" height="50" relative="1" as="geometry">
            <mxPoint x="540" y="289.97" as="sourcePoint" />
            <mxPoint x="580" y="289.80999999999995" as="targetPoint" />
          </mxGeometry>
        </mxCell>
        <mxCell id="ugSWX1yStPLp8a-PfSf9-1799" value="" style="endArrow=classic;html=1;rounded=0;strokeColor=#CCFFFF;exitX=1;exitY=0.5;exitDx=0;exitDy=0;" edge="1" parent="1">
          <mxGeometry width="50" height="50" relative="1" as="geometry">
            <mxPoint x="640" y="289.97" as="sourcePoint" />
            <mxPoint x="680" y="289.80999999999995" as="targetPoint" />
          </mxGeometry>
        </mxCell>
        <mxCell id="ugSWX1yStPLp8a-PfSf9-1800" value="" style="endArrow=classic;html=1;rounded=0;strokeColor=#CCFFFF;exitX=1;exitY=0.5;exitDx=0;exitDy=0;" edge="1" parent="1">
          <mxGeometry width="50" height="50" relative="1" as="geometry">
            <mxPoint x="740" y="289.97" as="sourcePoint" />
            <mxPoint x="780" y="289.80999999999995" as="targetPoint" />
          </mxGeometry>
        </mxCell>
        <mxCell id="ugSWX1yStPLp8a-PfSf9-1801" value="" style="endArrow=classic;html=1;rounded=0;strokeColor=#CCFFFF;exitX=1;exitY=0.5;exitDx=0;exitDy=0;" edge="1" parent="1">
          <mxGeometry width="50" height="50" relative="1" as="geometry">
            <mxPoint x="840" y="289.97" as="sourcePoint" />
            <mxPoint x="880" y="289.80999999999995" as="targetPoint" />
          </mxGeometry>
        </mxCell>
        <mxCell id="ugSWX1yStPLp8a-PfSf9-1802" value="" style="endArrow=classic;html=1;rounded=0;strokeColor=#CCFFFF;exitX=1;exitY=0.5;exitDx=0;exitDy=0;" edge="1" parent="1">
          <mxGeometry width="50" height="50" relative="1" as="geometry">
            <mxPoint x="940" y="289.97" as="sourcePoint" />
            <mxPoint x="980" y="289.80999999999995" as="targetPoint" />
          </mxGeometry>
        </mxCell>
        <mxCell id="ugSWX1yStPLp8a-PfSf9-1803" value="" style="endArrow=classic;html=1;rounded=0;strokeColor=#CCFFFF;exitX=1;exitY=0.5;exitDx=0;exitDy=0;" edge="1" parent="1">
          <mxGeometry width="50" height="50" relative="1" as="geometry">
            <mxPoint x="1040" y="289.97" as="sourcePoint" />
            <mxPoint x="1080" y="289.80999999999995" as="targetPoint" />
          </mxGeometry>
        </mxCell>
        <mxCell id="ugSWX1yStPLp8a-PfSf9-1804" value="" style="endArrow=classic;html=1;rounded=0;strokeColor=#CCFFFF;exitX=1;exitY=0.5;exitDx=0;exitDy=0;" edge="1" parent="1">
          <mxGeometry width="50" height="50" relative="1" as="geometry">
            <mxPoint x="40" y="289.76000000000005" as="sourcePoint" />
            <mxPoint x="80" y="289.59999999999997" as="targetPoint" />
          </mxGeometry>
        </mxCell>
      </root>
    </mxGraphModel>
  </diagram>
</mxfile>
